<mxfile host="app.diagrams.net" modified="2020-12-06T22:02:53.968Z" agent="5.0 (Windows)" etag="NAnk2lIBGkcM_asL9NtI" version="13.10.9" type="github">
  <diagram name="Page-1" id="13e1069c-82ec-6db2-03f1-153e76fe0fe0">
    <mxGraphModel dx="1256" dy="777" grid="1" gridSize="10" guides="1" tooltips="1" connect="1" arrows="1" fold="1" page="1" pageScale="1" pageWidth="850" pageHeight="1100" background="#ffffff" math="0" shadow="0">
      <root>
        <mxCell id="0" />
        <mxCell id="1" parent="0" />
        <mxCell id="2huWn9lkmd3wU_CIS9U9-1" value="Policeman" style="shape=umlActor;verticalLabelPosition=bottom;verticalAlign=top;html=1;outlineConnect=0;" vertex="1" parent="1">
          <mxGeometry x="200" y="70" width="30" height="60" as="geometry" />
        </mxCell>
        <mxCell id="2huWn9lkmd3wU_CIS9U9-3" value="&lt;b&gt;&lt;font style=&quot;font-size: 17px&quot;&gt;Aktywacja&lt;/font&gt;&lt;/b&gt;" style="text;html=1;align=center;verticalAlign=middle;resizable=0;points=[];autosize=1;" vertex="1" parent="1">
          <mxGeometry x="50" y="20" width="100" height="20" as="geometry" />
        </mxCell>
        <mxCell id="2huWn9lkmd3wU_CIS9U9-7" value="Gun System " style="rounded=0;whiteSpace=wrap;html=1;" vertex="1" parent="1">
          <mxGeometry x="315" y="90" width="120" height="60" as="geometry" />
        </mxCell>
        <mxCell id="2huWn9lkmd3wU_CIS9U9-8" value="Local Distributor" style="shape=umlActor;verticalLabelPosition=bottom;verticalAlign=top;html=1;outlineConnect=0;" vertex="1" parent="1">
          <mxGeometry x="570" y="70" width="30" height="60" as="geometry" />
        </mxCell>
        <mxCell id="2huWn9lkmd3wU_CIS9U9-9" value="" style="endArrow=none;dashed=1;html=1;" edge="1" parent="1">
          <mxGeometry width="50" height="50" relative="1" as="geometry">
            <mxPoint x="216" y="810" as="sourcePoint" />
            <mxPoint x="215.5" y="160" as="targetPoint" />
          </mxGeometry>
        </mxCell>
        <mxCell id="2huWn9lkmd3wU_CIS9U9-10" value="&lt;div&gt;loop&lt;/div&gt;&lt;div&gt;&lt;br&gt;&lt;/div&gt;incorrectDataCounter &amp;lt;3" style="shape=umlFrame;whiteSpace=wrap;html=1;width=150;height=50;" vertex="1" parent="1">
          <mxGeometry x="20" y="220" width="450" height="150" as="geometry" />
        </mxCell>
        <mxCell id="2huWn9lkmd3wU_CIS9U9-11" value="" style="html=1;points=[];perimeter=orthogonalPerimeter;" vertex="1" parent="1">
          <mxGeometry x="210" y="230" width="10" height="330" as="geometry" />
        </mxCell>
        <mxCell id="2huWn9lkmd3wU_CIS9U9-15" value="" style="endArrow=classic;html=1;" edge="1" parent="1">
          <mxGeometry width="50" height="50" relative="1" as="geometry">
            <mxPoint x="220" y="250" as="sourcePoint" />
            <mxPoint x="367" y="250" as="targetPoint" />
          </mxGeometry>
        </mxCell>
        <mxCell id="2huWn9lkmd3wU_CIS9U9-16" value="takeFingerPrint()" style="text;html=1;strokeColor=none;fillColor=none;align=center;verticalAlign=middle;whiteSpace=wrap;rounded=0;" vertex="1" parent="1">
          <mxGeometry x="250" y="230" width="40" height="20" as="geometry" />
        </mxCell>
        <mxCell id="2huWn9lkmd3wU_CIS9U9-18" value="" style="endArrow=none;dashed=1;html=1;" edge="1" parent="1">
          <mxGeometry width="50" height="50" relative="1" as="geometry">
            <mxPoint x="375" y="590" as="sourcePoint" />
            <mxPoint x="375" y="160" as="targetPoint" />
          </mxGeometry>
        </mxCell>
        <mxCell id="2huWn9lkmd3wU_CIS9U9-19" value="" style="html=1;points=[];perimeter=orthogonalPerimeter;" vertex="1" parent="1">
          <mxGeometry x="370" y="240" width="10" height="550" as="geometry" />
        </mxCell>
        <mxCell id="2huWn9lkmd3wU_CIS9U9-22" value="" style="endArrow=classic;html=1;" edge="1" parent="1">
          <mxGeometry width="50" height="50" relative="1" as="geometry">
            <mxPoint x="370" y="290" as="sourcePoint" />
            <mxPoint x="220" y="290" as="targetPoint" />
          </mxGeometry>
        </mxCell>
        <mxCell id="2huWn9lkmd3wU_CIS9U9-23" value="accessDenied()" style="text;html=1;strokeColor=none;fillColor=none;align=center;verticalAlign=middle;whiteSpace=wrap;rounded=0;" vertex="1" parent="1">
          <mxGeometry x="260" y="270" width="40" height="20" as="geometry" />
        </mxCell>
        <mxCell id="2huWn9lkmd3wU_CIS9U9-24" value="opt" style="shape=umlFrame;whiteSpace=wrap;html=1;" vertex="1" parent="1">
          <mxGeometry x="20" y="380" width="800" height="270" as="geometry" />
        </mxCell>
        <mxCell id="2huWn9lkmd3wU_CIS9U9-25" value="[incorrectDataCounter &amp;gt;=3]" style="text;html=1;strokeColor=none;fillColor=none;align=center;verticalAlign=middle;whiteSpace=wrap;rounded=0;" vertex="1" parent="1">
          <mxGeometry x="20" y="420" width="180" height="20" as="geometry" />
        </mxCell>
        <mxCell id="2huWn9lkmd3wU_CIS9U9-26" value="" style="endArrow=none;dashed=1;html=1;" edge="1" parent="1">
          <mxGeometry width="50" height="50" relative="1" as="geometry">
            <mxPoint x="585" y="800" as="sourcePoint" />
            <mxPoint x="585" y="150" as="targetPoint" />
          </mxGeometry>
        </mxCell>
        <mxCell id="2huWn9lkmd3wU_CIS9U9-27" value="" style="html=1;points=[];perimeter=orthogonalPerimeter;" vertex="1" parent="1">
          <mxGeometry x="580" y="390" width="10" height="250" as="geometry" />
        </mxCell>
        <mxCell id="2huWn9lkmd3wU_CIS9U9-30" value="" style="endArrow=classic;html=1;" edge="1" parent="1">
          <mxGeometry width="50" height="50" relative="1" as="geometry">
            <mxPoint x="380" y="400" as="sourcePoint" />
            <mxPoint x="580" y="400" as="targetPoint" />
          </mxGeometry>
        </mxCell>
        <mxCell id="2huWn9lkmd3wU_CIS9U9-31" value="sendToDistributor(RadioModule*)" style="edgeLabel;html=1;align=center;verticalAlign=middle;resizable=0;points=[];fontSize=12;" vertex="1" connectable="0" parent="2huWn9lkmd3wU_CIS9U9-30">
          <mxGeometry x="0.2824" y="-4" relative="1" as="geometry">
            <mxPoint x="-28" y="16" as="offset" />
          </mxGeometry>
        </mxCell>
        <mxCell id="2huWn9lkmd3wU_CIS9U9-34" value="" style="endArrow=classic;html=1;" edge="1" parent="1">
          <mxGeometry width="50" height="50" relative="1" as="geometry">
            <mxPoint x="370" y="430" as="sourcePoint" />
            <mxPoint x="220" y="430" as="targetPoint" />
          </mxGeometry>
        </mxCell>
        <mxCell id="2huWn9lkmd3wU_CIS9U9-36" value="&lt;font style=&quot;font-size: 12px&quot;&gt;block()&lt;/font&gt;" style="text;html=1;strokeColor=none;fillColor=none;align=center;verticalAlign=middle;whiteSpace=wrap;rounded=0;fontSize=11;" vertex="1" parent="1">
          <mxGeometry x="275" y="400" width="40" height="20" as="geometry" />
        </mxCell>
        <mxCell id="2huWn9lkmd3wU_CIS9U9-38" value="opt" style="shape=umlFrame;whiteSpace=wrap;html=1;fontSize=11;" vertex="1" parent="1">
          <mxGeometry x="60" y="460" width="560" height="110" as="geometry" />
        </mxCell>
        <mxCell id="2huWn9lkmd3wU_CIS9U9-39" value="[fingerPrint correct == true]" style="text;html=1;strokeColor=none;fillColor=none;align=center;verticalAlign=middle;whiteSpace=wrap;rounded=0;fontSize=11;" vertex="1" parent="1">
          <mxGeometry x="60" y="495" width="140" height="20" as="geometry" />
        </mxCell>
        <mxCell id="2huWn9lkmd3wU_CIS9U9-40" value="" style="endArrow=classic;html=1;fontSize=11;" edge="1" parent="1">
          <mxGeometry width="50" height="50" relative="1" as="geometry">
            <mxPoint x="590" y="494" as="sourcePoint" />
            <mxPoint x="745" y="494" as="targetPoint" />
          </mxGeometry>
        </mxCell>
        <mxCell id="2huWn9lkmd3wU_CIS9U9-41" value="manual&lt;font style=&quot;font-size: 12px&quot;&gt;Authorize()&lt;/font&gt;" style="text;html=1;strokeColor=none;fillColor=none;align=center;verticalAlign=middle;whiteSpace=wrap;rounded=0;fontSize=11;" vertex="1" parent="1">
          <mxGeometry x="680" y="475" width="40" height="20" as="geometry" />
        </mxCell>
        <mxCell id="2huWn9lkmd3wU_CIS9U9-42" value="" style="endArrow=classic;html=1;" edge="1" parent="1">
          <mxGeometry width="50" height="50" relative="1" as="geometry">
            <mxPoint x="370" y="550" as="sourcePoint" />
            <mxPoint x="220" y="550" as="targetPoint" />
          </mxGeometry>
        </mxCell>
        <mxCell id="2huWn9lkmd3wU_CIS9U9-43" value="&lt;font style=&quot;font-size: 12px&quot;&gt;giveAccess()&lt;/font&gt;" style="text;html=1;strokeColor=none;fillColor=none;align=center;verticalAlign=middle;whiteSpace=wrap;rounded=0;fontSize=11;" vertex="1" parent="1">
          <mxGeometry x="275" y="520" width="40" height="20" as="geometry" />
        </mxCell>
        <mxCell id="2huWn9lkmd3wU_CIS9U9-45" value="&lt;div&gt;Memory&lt;/div&gt;&lt;div&gt;Authorization&lt;/div&gt;" style="rounded=0;whiteSpace=wrap;html=1;" vertex="1" parent="1">
          <mxGeometry x="690" y="80" width="120" height="60" as="geometry" />
        </mxCell>
        <mxCell id="2huWn9lkmd3wU_CIS9U9-46" value="" style="endArrow=none;dashed=1;html=1;fontSize=12;entryX=0.5;entryY=1;entryDx=0;entryDy=0;" edge="1" parent="1" target="2huWn9lkmd3wU_CIS9U9-45">
          <mxGeometry width="50" height="50" relative="1" as="geometry">
            <mxPoint x="750" y="800" as="sourcePoint" />
            <mxPoint x="750" y="240" as="targetPoint" />
          </mxGeometry>
        </mxCell>
        <mxCell id="2huWn9lkmd3wU_CIS9U9-48" value="" style="html=1;points=[];perimeter=orthogonalPerimeter;fontSize=12;" vertex="1" parent="1">
          <mxGeometry x="745" y="660" width="10" height="120" as="geometry" />
        </mxCell>
        <mxCell id="2huWn9lkmd3wU_CIS9U9-49" value="" style="endArrow=classic;html=1;fontSize=11;entryX=0.571;entryY=0.389;entryDx=0;entryDy=0;entryPerimeter=0;" edge="1" parent="1">
          <mxGeometry width="50" height="50" relative="1" as="geometry">
            <mxPoint x="740" y="680" as="sourcePoint" />
            <mxPoint x="380" y="680" as="targetPoint" />
          </mxGeometry>
        </mxCell>
        <mxCell id="2huWn9lkmd3wU_CIS9U9-50" value="&lt;font style=&quot;font-size: 12px&quot;&gt;Authorize()&lt;/font&gt;" style="text;html=1;strokeColor=none;fillColor=none;align=center;verticalAlign=middle;whiteSpace=wrap;rounded=0;fontSize=11;" vertex="1" parent="1">
          <mxGeometry x="520" y="660" width="40" height="20" as="geometry" />
        </mxCell>
        <mxCell id="2huWn9lkmd3wU_CIS9U9-51" value="&lt;font style=&quot;font-size: 12px&quot;&gt;giveAccess()&lt;/font&gt;" style="text;html=1;strokeColor=none;fillColor=none;align=center;verticalAlign=middle;whiteSpace=wrap;rounded=0;fontSize=11;" vertex="1" parent="1">
          <mxGeometry x="275" y="690" width="40" height="20" as="geometry" />
        </mxCell>
        <mxCell id="2huWn9lkmd3wU_CIS9U9-52" value="" style="html=1;points=[];perimeter=orthogonalPerimeter;" vertex="1" parent="1">
          <mxGeometry x="210" y="660" width="10" height="110" as="geometry" />
        </mxCell>
        <mxCell id="2huWn9lkmd3wU_CIS9U9-53" value="" style="endArrow=classic;html=1;" edge="1" parent="1">
          <mxGeometry width="50" height="50" relative="1" as="geometry">
            <mxPoint x="370" y="714.5" as="sourcePoint" />
            <mxPoint x="220" y="714.5" as="targetPoint" />
          </mxGeometry>
        </mxCell>
        <mxCell id="2huWn9lkmd3wU_CIS9U9-54" value="" style="endArrow=classic;html=1;fontSize=11;entryX=0.571;entryY=0.389;entryDx=0;entryDy=0;entryPerimeter=0;" edge="1" parent="1">
          <mxGeometry width="50" height="50" relative="1" as="geometry">
            <mxPoint x="750" y="530" as="sourcePoint" />
            <mxPoint x="380" y="529.5" as="targetPoint" />
          </mxGeometry>
        </mxCell>
        <mxCell id="2huWn9lkmd3wU_CIS9U9-55" value="&lt;font style=&quot;font-size: 12px&quot;&gt;Authorize()&lt;/font&gt;" style="text;html=1;strokeColor=none;fillColor=none;align=center;verticalAlign=middle;whiteSpace=wrap;rounded=0;fontSize=11;" vertex="1" parent="1">
          <mxGeometry x="510" y="500" width="40" height="20" as="geometry" />
        </mxCell>
      </root>
    </mxGraphModel>
  </diagram>
</mxfile>
